<svg xmlns="http://www.w3.org/2000/svg" width="117" height="21" fill="none" viewBox="0 0 117 21">
    <style>
      .stroke-attr { stroke: #000 }
      .fill-attr { fill: #000 }

      @media (prefers-color-scheme: dark) {
        .stroke-attr { stroke: #fff }
        .fill-attr { fill: #fff }
      }
    </style>

    <path class="stroke-attr" stroke-width="3" d="M30.178 2c-5.355 0-8.568 5.261-8.14 8.897h16.28C38.746 7.26 35.533 2 30.178 2Z"/>
    <path class="fill-attr" d="M15.961 1v18.982h-3.663v-8.1H3.69v8.1H0V1h3.69v7.673h8.608V1h3.663Zm42.172 3.235h-6.069v15.747h-3.662V4.235h-6.07V1h15.801v3.235Zm17.676 12.512v3.235h-13.18V1h12.94v3.235h-9.251v4.572h7.994V11.8h-7.994v4.946h9.491Zm5.015 3.235V1h8.395c.873 0 1.675.178 2.406.535.749.356 1.39.837 1.925 1.443a6.35 6.35 0 0 1 1.257 2.032c.303.749.454 1.515.454 2.3a6.48 6.48 0 0 1-.427 2.326 5.603 5.603 0 0 1-1.177 1.924 5.438 5.438 0 0 1-1.818 1.284l4.331 7.138h-4.064l-3.903-6.363h-3.69v6.363h-3.689Zm3.69-9.598h4.625c.463 0 .873-.134 1.23-.4a3.05 3.05 0 0 0 .855-1.124c.214-.463.321-.98.321-1.55 0-.606-.125-1.132-.374-1.578a3.042 3.042 0 0 0-.963-1.096 2.07 2.07 0 0 0-1.23-.401h-4.464v6.15Zm24.198 9.732c-1.515 0-2.807-.25-3.877-.749-1.051-.517-1.907-1.22-2.566-2.112a9.232 9.232 0 0 1-1.417-3.021 13.793 13.793 0 0 1-.455-3.556V1h3.69v9.678c0 .784.071 1.55.214 2.3.16.73.419 1.39.775 1.978a3.929 3.929 0 0 0 1.417 1.39c.588.339 1.319.508 2.192.508.891 0 1.631-.17 2.219-.508a3.854 3.854 0 0 0 1.417-1.417 6.46 6.46 0 0 0 .776-1.978c.16-.749.24-1.506.24-2.273V1H117v9.678c0 1.301-.16 2.522-.481 3.663-.303 1.14-.793 2.148-1.471 3.021-.659.856-1.515 1.533-2.566 2.032-1.052.481-2.308.722-3.77.722Z"/>
    <path class="stroke-attr" stroke-width="2" d="M19 19.72c3.682.287 1.503-1.72 4.295-1.72 3.49 0 .614 1.72 3.682 1.72 3.069 0 1.841-1.72 4.91-1.72 3.068 0 .858 2 4.54 2 3.339 0 .422-1.72 4.909-1.72S41.513 20 46 20m-27-4.28c3.682.287 1.503-1.72 4.295-1.72 3.49 0 .614 1.72 3.682 1.72 3.069 0 1.841-1.72 4.91-1.72 3.068 0 .858 2 4.54 2 3.339 0 .422-1.72 4.909-1.72S41.513 16 46 16"/>
</svg>